<svg id="Layer_1" data-name="Layer 1" xmlns="http://www.w3.org/2000/svg" viewBox="0 0 512 512"><title>instagram</title><g id="Icon-Megapack"><g id="Artboard"><g id="Social-Media"><path id="_07-Instagram" data-name="07-Instagram" d="M413.05,0H99A99.06,99.06,0,0,0,0,98.94V413.06A99.06,99.06,0,0,0,99,512H413.05A99.06,99.06,0,0,0,512,413.06V98.94A99.06,99.06,0,0,0,413.05,0Zm28.62,59L453,59v86.85l-86.83.27-.29-86.83L441.67,59ZM183.32,203.92a90.31,90.31,0,1,1-17.12,52.76,90.33,90.33,0,0,1,17.12-52.76ZM461.07,413.36a49,49,0,0,1-49,49.05H98.57a49,49,0,0,1-49-49.05V203.73h76.3a139.26,139.26,0,0,0-10.3,52.55c0,77.19,62.68,140,139.74,140s139.74-62.83,139.74-140a139.84,139.84,0,0,0-10.29-52.55h76.29V413.36Z"/></g></g></g></svg>