<?xml version="1.0" encoding="UTF-8" standalone="no"?>
<svg width="512px" height="470px" viewBox="0 0 512 470" version="1.1" xmlns="http://www.w3.org/2000/svg" xmlns:xlink="http://www.w3.org/1999/xlink" xmlns:sketch="http://www.bohemiancoding.com/sketch/ns">
    <!-- Generator: Sketch 3.0.3 (7892) - http://www.bohemiancoding.com/sketch -->
    <title>09 Linkedin</title>
    <desc>Created with Sketch.</desc>
    <defs></defs>
    <g id="Icon-Megapack" stroke="none" stroke-width="1" fill="none" fill-rule="evenodd" sketch:type="MSPage">
        <g id="Artboard" sketch:type="MSArtboardGroup" transform="translate(-5682.000000, -109713.000000)" fill="#000000">
            <g id="Social-Media" sketch:type="MSLayerGroup" transform="translate(2082.000000, 108492.000000)">
                <path d="M3613.40314,1372.31054 L3713.9267,1372.31054 L3713.9267,1691 L3613.40314,1691 L3613.40314,1372.31054 Z M3660.66661,1332.1396 L3659.9363,1332.1396 C3623.58162,1332.1396 3600,1307.65047 3600,1276.628 C3600,1244.98712 3624.29001,1221 3661.37501,1221 C3698.43809,1221 3721.23828,1244.92892 3721.96859,1276.5407 C3721.96859,1307.57772 3698.43809,1332.1396 3660.66661,1332.1396 L3660.66661,1332.1396 Z M4112,1691 L3999.03712,1691 L3999.03712,1525.59973 C3999.03712,1482.30602 3981.39255,1452.76119 3942.51948,1452.76119 C3912.79812,1452.76119 3896.29027,1472.69488 3888.58661,1491.92443 C3885.70498,1498.80613 3886.14664,1508.41727 3886.14664,1518.05019 L3886.14664,1691 L3774.24084,1691 C3774.24084,1691 3775.69613,1398.0125 3774.24084,1371.37134 L3886.14664,1371.37134 L3886.14664,1421.53222 C3892.76426,1399.60226 3928.50953,1368.29345 3985.59915,1368.29345 C4056.38015,1368.29345 4112,1414.28031 4112,1513.2664 L4112,1691 L4112,1691 Z" id="09-Linkedin" sketch:type="MSShapeGroup"></path>
            </g>
        </g>
    </g>
</svg>