<?xml version="1.0" encoding="UTF-8" standalone="no"?>
<svg width="512px" height="512px" viewBox="0 0 512 512" version="1.1" xmlns="http://www.w3.org/2000/svg" xmlns:xlink="http://www.w3.org/1999/xlink" xmlns:sketch="http://www.bohemiancoding.com/sketch/ns">
    <!-- Generator: Sketch 3.0.3 (7892) - http://www.bohemiancoding.com/sketch -->
    <title>02 Pinterest</title>
    <desc>Created with Sketch.</desc>
    <defs></defs>
    <g id="Icon-Megapack" stroke="none" stroke-width="1" fill="none" fill-rule="evenodd" sketch:type="MSPage">
        <g id="Artboard" sketch:type="MSArtboardGroup" transform="translate(-3282.000000, -108492.000000)" fill="#000000">
            <g id="Social-Media" sketch:type="MSLayerGroup" transform="translate(2082.000000, 108492.000000)">
                <path d="M1456.01451,0 C1314.63932,0 1200,114.604672 1200,255.996373 C1200,360.816128 1263.04618,450.87509 1353.2707,490.464476 C1352.53086,472.599204 1353.14014,451.128961 1357.70975,431.682434 C1362.63478,410.908524 1390.63274,292.183887 1390.63274,292.183887 C1390.64,292.183887 1382.46546,275.841841 1382.46546,251.687818 C1382.46546,213.737714 1404.46489,185.412951 1431.83181,185.412951 C1455.12234,185.412951 1466.37955,202.901044 1466.37955,223.849037 C1466.37955,247.270461 1451.44489,282.268406 1443.77084,314.691374 C1437.34436,341.855582 1457.38539,363.993143 1484.16479,363.993143 C1532.66799,363.993143 1565.32986,301.714933 1565.32986,227.889215 C1565.32986,171.798206 1527.53987,129.807925 1458.82156,129.807925 C1381.16711,129.807925 1332.79447,187.705045 1332.79447,252.38415 C1332.79447,274.695794 1339.36601,290.421296 1349.65127,302.592602 C1354.40222,308.20678 1355.04777,310.440846 1353.34323,316.881919 C1352.12467,321.553147 1349.30311,332.933826 1348.12807,337.416465 C1346.42353,343.893805 1341.1721,346.222166 1335.32589,343.828524 C1299.54508,329.212801 1282.89137,290.051369 1282.89137,246.030119 C1282.89137,173.31418 1344.204,86.0913199 1465.83555,86.0913199 C1563.5818,86.0913199 1627.90457,156.834318 1627.90457,232.74178 C1627.90457,333.180444 1572.07548,408.188477 1489.76438,408.188477 C1462.14359,408.188477 1436.14031,393.260855 1427.25494,376.295012 C1427.25494,376.295012 1412.37105,435.265644 1409.23035,446.66083 C1403.81935,466.382988 1393.17867,486.1124 1383.46642,501.489736 C1406.48133,508.293482 1430.80909,512 1456.01451,512 C1597.3897,512 1712,397.373567 1712,255.996373 C1712,114.604672 1597.3897,0 1456.01451,0" id="02-Pinterest" sketch:type="MSShapeGroup"></path>
            </g>
        </g>
    </g>
</svg>