<svg id="Layer_1" data-name="Layer 1" xmlns="http://www.w3.org/2000/svg" viewBox="0 0 512 415"><title>twitter</title><g id="Icon-Megapack"><g id="Artboard"><g id="Social-Media"><path id="_01-Twitter" data-name="01-Twitter" d="M512,49.13a210.37,210.37,0,0,1-60.32,16.49A104.91,104.91,0,0,0,497.86,7.68a210.43,210.43,0,0,1-66.73,25.4A104.9,104.9,0,0,0,354.46,0c-58,0-105,46.92-105,104.76a103.5,103.5,0,0,0,2.71,23.85A298.39,298.39,0,0,1,35.65,19.14,104.76,104.76,0,0,0,68.16,159.06,105.42,105.42,0,0,1,20.56,146v1.29A104.84,104.84,0,0,0,104.84,250a102.42,102.42,0,0,1-27.69,3.69,104.21,104.21,0,0,1-19.74-1.85,105,105,0,0,0,98.11,72.72A211.11,211.11,0,0,1,25.06,369.39,211.38,211.38,0,0,1,0,368,298.12,298.12,0,0,0,161,415c193.24,0,298.87-159.61,298.87-298.08,0-4.55-.1-9.09-.29-13.55A212.59,212.59,0,0,0,512,49.13"/></g></g></g></svg>